PathFileType	4	(X/Y/Z)	Patient4_TMGait_0pt4_03_left_07.trc.trc
DataRate	CameraRate	NumFrames	NumMarkers	Units	OrigDataRate	OrigDataStartFrame	OrigNumFrames
76.502732240437	76.502732240437	4	33	mm	76.502732240437	89	       141
Frame#	Time	Sacral			L.Shoulder			Chest			R.Shoulder			Neck			R.ASIS			L.ASIS			R.Thigh.Superior			R.Thigh.Lateral			R.Thigh.Inferior			R.Patella			L.Thigh.Superior			L.Thigh.Lateral			L.Thigh.Inferior			L.Patella			L.Shank.Superior			L.Shank.Lateral			L.Shank.Inferior			R.Shank.Superior			R.Shank.Lateral			R.Shank.Inferior			R.Heel			R.Midfoot.Superior			R.Midfoot.Lateral			R.Toe			L.Heel			L.Midfoot.Lateral			L.Midfoot.Superior			L.Toe			L.Elbow			L.Wrist			R.Elbow			R.Wrist			
		X1	Y1	Z1	X2	Y2	Z2	X3	Y3	Z3	X4	Y4	Z4	X5	Y5	Z5	X6	Y6	Z6	X7	Y7	Z7	X8	Y8	Z8	X9	Y9	Z9	X10	Y10	Z10	X11	Y11	Z11	X12	Y12	Z12	X13	Y13	Z13	X14	Y14	Z14	X15	Y15	Z15	X16	Y16	Z16	X17	Y17	Z17	X18	Y18	Z18	X19	Y19	Z19	X20	Y20	Z20	X21	Y21	Z21	X22	Y22	Z22	X23	Y23	Z23	X24	Y24	Z24	X25	Y25	Z25	X26	Y26	Z26	X27	Y27	Z27	X28	Y28	Z28	X29	Y29	Z29	X30	Y30	Z30	X31	Y31	Z31	X32	Y32	Z32	X33	Y33	Z33	

89	9.900285714286	843.076384799429	996.856025126424	512.981959359704	1014.206039956611	1424.817150731354	318.830287756865	1117.026199670921	1362.034275836626	482.363200131986	1032.249521748962	1438.535804173569	654.360774128155	1014.818403254309	1492.854613414119	472.051997527715	1078.165294812800	942.446186432607	627.393706667294	1055.869739759162	960.113229309059	353.008022734535	1134.775931161780	746.222592744042	596.397512158654	1064.232227530640	631.856894019210	658.777544147137	1144.399951909580	585.505739242034	576.720676314458	1153.103807611271	496.108150257693	582.941043771202	1108.129314469521	746.295702135340	374.680663119559	1028.191818357340	629.747540422953	303.067275777838	1119.283182530722	548.463776975787	358.908587017730	1115.274091370672	463.517726651268	352.108687524307	1050.069672336215	404.186997438448	344.267608199834	912.258603865183	351.911031254853	297.089295818047	909.174629340422	221.008754957857	349.160335095827	1124.267636475179	406.078392185022	593.037535094633	1056.360994193069	303.613684339159	660.232362541575	1094.839146381555	207.427452583905	597.620134015603	961.226964098118	42.953602434066	579.191828043271	1133.141574564727	97.785308594042	605.918214435930	1048.170600526251	37.281015000933	650.119687379193	1255.235435096581	46.821658577748	628.452448639096	725.467909881724	137.551056097371	386.359426003861	788.424587390996	93.626637184383	310.556174445246	890.192086908208	116.635256923264	332.296980992428	980.724954044627	33.020155282363	314.773787806153	989.315483581866	1068.631581708591	213.912562971742	1111.495602028741	835.398167459910	196.152350710266	972.773504698567	1107.687699619583	798.342036688875	1087.144964743936	872.660581963686	804.354908338349	
90	9.913357142857	842.567181605780	997.030666392516	517.008211562221	1012.539293679934	1425.091344911845	322.162734808077	1116.875655812111	1361.891609533187	484.633651455200	1033.865698912845	1438.213540245382	657.526537167209	1014.728375641140	1492.893598313867	475.528657203206	1078.314676232368	942.472903843579	629.781307309312	1054.316534355836	959.988336544761	355.516826392111	1133.351960370800	745.556540694851	598.599526984833	1062.423730027174	631.576457295382	661.025468161997	1141.808745283596	584.923611354002	578.437013767212	1149.855866366363	495.476902790743	584.365215301058	1111.957040231401	749.569967208457	376.746785137514	1036.902678419218	631.324991691998	303.783813391675	1130.665171049960	552.280473183892	359.122055505761	1128.378031435033	466.406000194845	351.568127356850	1061.859067250578	406.622780674402	343.838489477203	922.334029261208	358.566857664546	296.900425035753	915.692817616595	227.642186669798	348.428494094646	1120.682510266576	405.498888818076	594.322913377512	1052.591917485401	303.040065086579	661.227814436920	1090.355511527540	207.009140769933	598.145069903508	955.868508130969	42.903736853085	579.297221437912	1127.906806622949	97.614263001922	606.031568496316	1042.838411038644	37.166607559163	650.255101495733	1249.980191184283	46.410783905949	628.527142602521	729.261396144856	153.440348581862	385.962113565983	789.459571062407	105.166733419800	310.334974100840	892.693068507269	121.959443729614	331.597306027130	976.962529207034	31.901302138734	314.771892170661	983.920553289057	1069.185312887262	217.351419775852	1101.641998246413	833.817456157564	197.984120872847	979.560812081415	1107.179622657172	803.546919450803	1102.205472982702	876.505772764999	806.437039069451	
91	9.926428571429	842.009178781688	997.165939205822	520.902509122868	1010.728333760211	1425.269843546036	325.314933425411	1116.621505368682	1361.703112152090	486.697981372204	1035.434509789358	1437.887616527826	660.476221062230	1014.532003202901	1492.895017805492	478.792441038107	1078.355276594923	942.442189806540	632.062711695575	1052.692492466275	959.853330465801	357.913444357519	1131.823383729440	744.932605778197	600.566678854318	1060.742068149493	631.344413027666	663.278168977692	1139.246587862355	584.365665893537	580.116654429382	1146.667833026777	494.851266614050	585.947888382551	1115.562620653411	753.162419384950	378.650050996957	1045.233636540052	633.390059480268	304.308876153362	1141.544214932656	556.719678780548	359.073573924635	1141.142679814754	470.026579671869	350.914703459361	1073.578677253285	409.587475850200	343.380821948737	932.615206535509	365.338674790908	296.612304042679	922.714698539236	234.538071132845	347.922176031142	1117.137036427664	404.925121050647	595.727447878833	1048.789661461326	302.485657796066	662.352693270602	1085.895551417109	206.615664352641	598.782241602567	950.526566521782	42.866726152005	579.434567963180	1122.697835056934	97.466881411426	606.205117857029	1037.521979264707	37.054374454644	650.407601003081	1244.735017322813	46.026821105950	628.610824445407	734.106107586821	169.049512297549	385.857394602673	791.560035133962	116.985311569118	310.278330560816	895.966430298171	127.863769773373	331.142558498108	974.208948848057	31.041335196359	314.640215828316	978.307625087331	1069.663580884361	220.656258914084	1091.629016512749	832.354143928362	199.474338544976	986.598926982211	1106.790062467598	808.685669621971	1117.160644137954	880.701928572890	808.448086386835	
92	9.939500000000	841.415008420453	997.291304171134	524.637622312283	1008.823734855837	1425.402213225224	328.287891560155	1116.273933461772	1361.508855048627	488.574466214129	1036.932566847057	1437.599614652416	663.213351088198	1014.249928738022	1492.898806455991	481.841945340421	1078.289601686014	942.392388432090	634.223419042428	1051.018848626581	959.765375639859	360.186338755598	1130.221849182531	744.377169628743	602.365511025887	1059.109012492589	631.166725497999	665.504454728044	1136.719330353652	583.843957056182	581.799390434102	1143.531758442307	494.248256503431	587.678521084555	1118.861597567060	757.041299579287	380.388231981227	1052.982300607387	635.924910772651	304.678067278537	1151.732601202571	561.721969153410	358.758279563389	1153.346499677229	474.313865323269	350.106471470933	1084.996977697206	413.049135239579	342.874685033649	942.850224111108	372.062510768713	296.287213139251	930.149685396302	241.471385926149	347.647751752503	1113.623082431368	404.381640747884	597.237254877432	1044.926904392331	301.981385016499	663.582954657944	1081.453598758808	206.267322711131	599.532639624768	945.212775149509	42.850172733708	579.607184266404	1117.525564556001	97.351998873672	606.445832192684	1032.230095162141	36.950479622709	650.578006355311	1239.507628541249	45.679848310703	628.708342217772	739.936372851877	183.669962236272	386.115006640009	794.806528805972	128.533574267411	310.419703674885	900.102063422817	134.127907407141	330.907588402506	972.871481166405	30.623838507076	314.300002018220	972.504985001381	1070.115529511083	223.841945953688	1081.469584931958	831.043218407740	200.670550858028	993.915173918102	1106.526117281068	813.667456397152	1131.979859741102	885.198711979300	810.337571797427	
